<?xml version="1.0" encoding="utf-8"?>
<!-- Generator: Adobe Illustrator 23.1.0, SVG Export Plug-In . SVG Version: 6.00 Build 0)  -->
<svg version="1.1" id="Layer_1" xmlns="http://www.w3.org/2000/svg" xmlns:xlink="http://www.w3.org/1999/xlink" x="0px" y="0px"
	 viewBox="0 0 640 960" style="enable-background:new 0 0 640 960;" xml:space="preserve">
<style type="text/css">
	.st0{display:none;}
	.st1{display:inline;}
	.st2{display:inline;clip-path:url(#SVGID_2_);fill:#FF914D;}
	.st3{display:inline;clip-path:url(#SVGID_2_);fill:#C1C3E7;}
	.st4{display:inline;clip-path:url(#SVGID_2_);fill:#97D3D3;}
	.st5{display:inline;clip-path:url(#SVGID_2_);fill:#ADB2B2;}
	.st6{fill:#202020;}
</style>
<g class="st0">
	<defs>
		<rect id="SVGID_1_" x="-1" width="640" height="960"/>
	</defs>
	<clipPath id="SVGID_2_" class="st1">
		<use xlink:href="#SVGID_1_"  style="overflow:visible;"/>
	</clipPath>
	<path class="st2" d="M489.18,603.34c-55.24-6.59-113.03,12.74-153.18,51.24c-20.78,19.93-37.18,44.73-61.08,60.79
		c-26.67,17.91-59.59,22.93-90.42,31.94c-66.77,19.52-127.25,59.98-170.76,114.25c-29.51,36.8-51.34,89.23-27.65,130.03
		c25.85,44.51,87.75,47.79,139.18,45.67c86.77-3.57,173.55-7.15,260.32-10.72c69.37-2.86,140.22-6.01,204.92-31.2
		c64.7-25.19,123.29-76.87,137.72-144.78c13.67-64.3-20.13-117.7-72.41-150.15C600.61,666.11,560.23,611.82,489.18,603.34z"/>
	<path class="st3" d="M419.77,456.12c-23.23,43.15-67.74,69.53-106.71,99.23c-38.98,29.71-76.7,70.72-75.21,119.71
		c1.84,60.34,60.22,101.09,112.26,131.69c56.59,33.28,117.02,67.61,182.65,66.22c88.67-1.88,164.48-70.72,202.87-150.67
		c35.81-74.57,45.74-162.8,19.61-241.28c-24.24-72.82-96.23-159-172.26-181.99C473.85,266.02,456.75,387.43,419.77,456.12z"/>
	<path class="st4" d="M196.74,119.27c28.68,53.77,117.51,49.56,145.91,103.47c14.95,28.39,6.76,64.51-11.89,90.62
		c-18.65,26.11-46.09,44.34-72.89,61.97c-32.02,21.07-64.05,42.14-96.07,63.22c-33.59,22.1-69.57,44.98-109.77,45.79
		c-44.92,0.91-87.01-27.36-111.48-65.04c-24.47-37.68-33.46-83.51-35.35-128.4C-99.23,185.46-62.23,27.01,26.03-42.75
		c36.82-29.1,80.33-31.29,120.08-4.11C211.36-2.23,165.62,60.94,196.74,119.27z"/>
	<path class="st5" d="M610.41,327.61c-58.48-17.79-118.5,48.2-176.89,30.1c-30.74-9.53-50.55-40.97-55.84-72.71
		c-5.29-31.75,1.24-64.14,7.74-95.66c7.77-37.66,15.54-75.32,23.31-112.99c8.15-39.5,17.44-81.25,45.38-110.34
		c31.22-32.51,81.12-42.31,125.2-32.94c44.09,9.37,82.97,35.5,116.15,66.01c77.93,71.66,164.08,210.29,150.95,322.37
		c-5.48,46.76-34.79,79.18-82.26,88.09C686.22,424.17,673.85,346.92,610.41,327.61z"/>
</g>
<g>
	<g>
		<g>
			<g>
				<g>
					<path class="st6" d="M622.67,935c0.09,1.59,0.28,0.69,0.24-3.71l-0.33-3.12L622.67,935z"/>
					<path class="st6" d="M623.28,905.4c-0.16-5.17-0.44-11.14-0.75-7.79c0.32,5.12,0.19,6.36,0.56,11.88
						c0.04,4.4-0.11,7.68-0.23,6.94c0.08,1.56-0.07,6.84,0.14,9.21c0.26-5.73,0.27-12.99,0.05-20.56
						C623.13,903.45,623.22,905.03,623.28,905.4z"/>
					<path class="st6" d="M623.8,475.23l-0.04,2.77C623.77,477.25,623.78,476.3,623.8,475.23z"/>
					<path class="st6" d="M623.98,208.71c0.01,2.03,0.04,2.88,0.07,2.98C624.03,209.8,624.01,208.25,623.98,208.71z"/>
					<path class="st6" d="M624.34,163.2c-0.01,0.98-0.02,1.8-0.02,2.68C624.35,164.86,624.37,163.83,624.34,163.2z"/>
					<path class="st6" d="M623.8,475.23l0.1-7.12C623.79,467.61,623.82,471.76,623.8,475.23z"/>
					<path class="st6" d="M622.48,846.08c0.02,1.49,0.05,2.73,0.09,3.87c-0.01-1.22-0.02-2.41-0.03-3.63
						C622.52,846.25,622.5,846.19,622.48,846.08z"/>
					<path class="st6" d="M624.07,592.72l0,2.16c0.04,0.64,0.08,1.23,0.13,1.8L624.07,592.72z"/>
					<path class="st6" d="M624.12,682.89c0.01-2.04-0.27-2.75-0.39-3.53c0.12,1.15,0.17,2.66,0.19,4.45
						C623.97,683.84,624.03,683.58,624.12,682.89z"/>
					<path class="st6" d="M623.62,825.87l0.04,2.54C623.65,827.75,623.63,826.64,623.62,825.87z"/>
					<path class="st6" d="M624.13,528.19c0.04-0.15,0.08-0.48,0.1-0.82C624.19,527.36,624.16,527.69,624.13,528.19z"/>
					<path class="st6" d="M518.81,933.68c-0.07,0.02,0.03,0.03,0.01,0.05C519.34,933.7,519.51,933.68,518.81,933.68z"/>
					<path class="st6" d="M623.33,935.07l-1.45,0.02c-0.16,0.05-0.31,0.11-0.31,0.16L623.33,935.07z"/>
					<path class="st6" d="M624.7,79.92c0,0.16,0,0.22-0.01,0.37C624.73,82.48,624.72,81.24,624.7,79.92z"/>
					<path class="st6" d="M15.5,127.94c0.25-8.66,0.32,14.09,0.6,1.06C16,130.21,15.67,117.14,15.5,127.94z"/>
					<path class="st6" d="M622.52,843.74c0-1.22,0-2.45,0-3.7C622.52,841.73,622.52,842.87,622.52,843.74z"/>
					<path class="st6" d="M16.11,128.99L16.11,128.99l0.03-1.35C16.12,128.2,16.12,128.52,16.11,128.99z"/>
					<path class="st6" d="M486.37,23.8c0.39,0.05,1.16,0.09,1.96,0.12C488.26,23.89,487.82,23.86,486.37,23.8z"/>
					<path class="st6" d="M624.13,30.99l0.04-3.54C624.16,28.85,624.15,29.99,624.13,30.99z"/>
					<path class="st6" d="M412.14,24.2c-1.92-0.02-2.58-0.06-5.2-0.02c0.24,0.01,0.49,0.02,0.8,0.03
						C408.69,24.17,409.95,24.15,412.14,24.2z"/>
					<path class="st6" d="M334.89,24.2c0.41,0.02,0.95,0.04,1.43,0.06c0.77,0,1.66-0.01,2.45-0.01L334.89,24.2z"/>
					<path class="st6" d="M284.03,933.82c1.69,0.08,2.75,0.17,3.57,0.25C286.41,933.87,297.76,933.8,284.03,933.82z"/>
					<path class="st6" d="M622.64,846.04c-0.07-0.45-0.11-1.11-0.12-2.3c0.01,0.89,0.01,1.74,0.02,2.57
						C622.58,846.54,622.62,846.59,622.64,846.04z"/>
					<path class="st6" d="M409,26.41l-12.27-0.04C400.16,26.38,404.62,26.4,409,26.41z"/>
					<path class="st6" d="M17.81,648.13l0.03,2.82C17.85,649.87,17.84,648.87,17.81,648.13z"/>
					<path class="st6" d="M360.3,26.41c-2.19-0.1-4.51-0.16-6.91-0.19c-0.51,0.02-1.09,0.04-1.43,0.07L360.3,26.41z"/>
					<path class="st6" d="M287.62,934.07c-0.03,0-0.03,0-0.03,0S287.6,934.07,287.62,934.07z"/>
					<path class="st6" d="M368.47,933.4c-11.7-0.01-5.49,0.36-7.97,0.57c-13.96,0.1-6.46-0.27-11.21-0.46
						c-8.72,0.1-15.4,0.44-21.9,0.42c-0.49-0.06-1.75-0.08-0.27-0.16c-9.22,0.29-27.36,0.01-38.09,0.38c-0.8-0.03-1.2-0.06-1.4-0.09
						c1.74,0.19,2.01,0.37,1.65,0.51c-5.24,0.01-9.73,0.23-11.7-0.01c3.21,0.01,3.48-0.09,4.99-0.17l-5.49,0.1
						c-4.95-0.35,7.5-0.12,7.5-0.38c-10.71,0.11-23.2,0.4-31.41,0.3c-1.72-0.34,19.2-0.11,8.24-0.42l12.7,0.13
						c-9.71-0.54,7.72,0.04-1.2-0.54c-16.71-0.1-18.7,0.17-35.37,0.07c-3.75,0.19,1.24,0.28-2.51,0.47
						c-23.7,0.34-18.65-0.85-36.08-0.4c-4.51,0.23-6.26,0.66-18.66,0.43l4.23-0.38c-16.18-0.04-9.24,0.55-26.19,0.29
						c3.01-0.15,12.72-0.13,10.27-0.17c-10.98-0.3-7.77,0.22-16.21,0.22l-1.75-0.34c-17.23,0.11-36.21,0.24-55.29,0.36
						c1.06-0.1,4.33-0.21-0.14-0.31c-24.07,0.17-51.37-0.04-74.59-0.24l-1.97,0.07l-0.25,0.01l-0.11,0l-0.02,0l-0.1,0.02l-0.23,0.03
						l-0.04-0.26c-0.01,0.04-0.03-0.58-0.04-0.94l-0.08-2.46c0-2.06,0.13-3.83,0.19-1.59c0.11-9.05-0.19-0.47-0.3-4.82
						c-0.02-5.15,0.17-6.8,0.26-3.54c-0.25-15.97-0.54-45.48-0.22-62.3l0.09,3.28c0.12-13.1-0.6-14.78-0.33-26.93l0.05,2.33
						c0.13-28.43-0.14-59.84,0.3-81.53c-0.42-4.12,0.19-28.14-0.4-29.96c0.29-16.23,0.4-11.58,0.59-34.45
						c0.03-6.1-0.37-9.1-0.43-16.65l0.31-0.18l-0.32-10.25l0.37-5.45l-0.08-7.08c-0.02,2.82-0.14,5.99-0.23,5.57
						c-0.07-5.53-0.02-12.27,0.07-17.66c0.06-2.7,0.11-5.05,0.15-6.76c0.05-1.7,0.1-2.75,0.14-2.82l-0.26-26.16
						c0.12,0.58,0.17,4.96,0.25,8.43c-0.31-13.97,0.32-2.54,0.04-15.34c-0.07,1.72-0.18-0.93-0.25-1.22
						c0.19-6.38,0.19-20.9,0.11-31.65l0.21,2.06c-0.03-19.41-0.06-40.91-0.1-62.69c-0.1,7.81-0.47,6.02-0.5-0.37l0.33-2.55
						c-0.2-4.12-0.12,6.67-0.37-1.79c0.04-8.14,0.37-5.47,0.48-0.8l-0.11-9.89c0.1-0.58,0.15,1.74,0.27,2.34
						c-0.2-4.06,0.33-17.07-0.02-22.93l0.1-0.56c-0.06-21.77-0.08-31.65-0.13-49.38c-0.28-0.35-0.22-7.28-0.45-12.57
						c0.09-13.03,0.31-27.5,0.29-43.21c-0.14-11.04-0.24-3.22-0.41-8.19c0.26-0.81,0.23-16.5,0.42-8.36
						c-0.04-18.85-0.05-24.08-0.26-47.91c-0.1,2.59-0.15,5.5-0.24,3.99c-0.04-4.33,0.11-9.84,0.23-9.22l0.03,1.14
						c-0.38-26.76,0.75-61.76,0.21-83.06l0.03,1.19l-0.28-22.1c0.04-10.17,0.19,6.1,0.35-1.43c-0.43-23.83,0.06-37.66-0.22-57.29
						c0.76-15.19-0.05-53.91,0.43-74.42l-0.18,1.18c-0.17-5.3,0.1-6.41,0.14-10.32c-0.14,0.55-0.16,5.75-0.26,2.46
						c-0.02-7.41-0.04-14.9-0.05-22.53c18.49,0.06,37.35,0.12,56.26,0.19c19.28,0.1,38.61,0.19,57.63,0.29
						c16.84,0.05,9.55-0.92,30.78-0.5l-6.02,0.33c33.98-0.4,69.47,0.01,102.74-0.32c-1.98,0.08-2.04,0.18-5.29,0.17
						c3.51,0.12,10.01,0.12,15.64,0.07c2.82-0.04,5.42-0.08,7.32-0.11c0.95-0.03,1.73-0.05,2.27-0.07c0.54-0.02,0.85-0.05,0.87-0.07
						c5.18,0.02,1.2,0.18,4.39,0.28c7.05,0.14,17.69-0.31,21.43-0.07c0.64,0.04-1.98,0.08-3.27,0.1c4.59-0.12,21.4,0.03,17-0.25
						c12.48,0.13,23.88-0.12,33.84,0.04c6.49-0.31,21.37,0.15,23.43-0.29c-0.89,0.45,21.88,0.36,29.78,0.15
						c-2.64,0.14,6.86,0.14,3.77,0.33c9.01-0.01,17.26-0.09,15.69-0.32c16.6,0.54,33.36-0.44,42.7,0.26
						c26.76-0.24,51.52-0.41,75.59-0.51c-0.87,0.45-26.61,0.04-25.57,0.52c22.83-0.19,36.01-0.57,58.65-0.46
						c5.86,0.06-3.33,0.2-5.31,0.27c8.97-0.07,17.7-0.08,26.22-0.08c8.16-0.01,16.13-0.01,23.93-0.02c0.03,4.11,0.07,8.14,0.1,12.14
						c-0.02-0.03-0.04-0.59-0.06-1.4c-0.02-0.81-0.04-1.88-0.06-2.91c0.01,4-0.07,9.3,0.14,8.85l-0.06-3.9
						c0.3-6.39,0.62,15.89,0.78,16.6c-0.59-6.79-0.15,20.05-0.89,9.26c0.04,2.63,0.14,5.94,0.27,5.33
						c-0.04,3.91-0.12,5.15-0.28,1.18c0.11,14.33,0.33,9.24,0.33,22.22c-0.1-0.05-0.14-2.67-0.25-4.01
						c0.19,6.57,0.39,13.18,0.3,24.15c-0.06-0.66-0.14,0.61-0.14-2.66c0.03,18.84,0.52,32.12,0.33,52.79
						c-0.43-6.1-0.14,7.03-0.52,8.13l0.11,11.12l0.18-4.46c-0.01,9.74,0.27,18.34,0.14,26.71l-0.15-7.24l0.07,18.25l0.14-10.33
						c0.19,9.85,0.47-1.06,0.37,11.9c-0.04-2.63,0,9.74-0.22,14.81l0-0.03c0.12,4.82,0.24,9.77,0.15,16.97
						c-0.12,1.87-0.41-1.5-0.49-0.29c0.31,4.75,0.09,22.8,0.42,28.82c-0.08-2.01-0.27-2.11-0.31-1.45l0.25,3.99
						c-0.08,4.51-0.12,5.17-0.28,4.44c-0.05,13.57,0.47-4.31,0.27,11.79c-0.02-1.26-0.06-0.66-0.1-3.29
						c-0.11,16.17,0.16,31.24,0.04,46.11c-0.38,4.38-0.09-12.98-0.41-7.96c0.07,21.43,0.45,44.37,0.36,65.1l0.04-3.86
						c0.53,2.87-0.26,15.44-0.01,25.93c-0.04-2.57-0.29-3.37-0.24-2.67c-0.09,14.2,0.13,29.03,0.3,50.55l-0.14-2.67
						c-0.12,8.37-0.07,22.04-0.13,31.08c0.14,2.68,0.11,7.85,0.31,4.71c-0.78,27.87,0.42,53.16-0.23,77.89
						c0-2.96-0.12-7.05-0.12-4.69l0.13,21.06c0.23-1.67,0.14-2.76,0.32-7.19c0.14,2.67,0.24,8.61,0.24,13.83
						c-0.15-9.47-0.37,0.08-0.5,4.17c0.07-0.69,0.15,0.72,0.22,0.37c-0.41,11,0.46,1.84,0.19,16.87l-0.12-0.8
						c0.06,5.62,0.22,10.8,0.19,16.87c-0.27,2.51-0.12-5.98-0.34-6.37c0.02,8.52,0.51,16.8,0.24,24.51
						c-0.04-3.62-0.11-8.82-0.15-12.44c-0.31,8.39-0.23,9.37-0.28,15.6l0.01-0.61l-0.14,14.42l0.08-3.67
						c0.7,10.66,0.13,21.7,0.58,36.06c-0.43-13.95-0.25-2.31-0.55-3.38c-0.08,3.67-0.18,9.24-0.26,7.65
						c0.24,6.78-0.19,11.33,0.16,20.9c-0.1,0.43-0.01,7.26-0.25,5.73c0.08,8.82,0.17-2.09,0.29-1.34c0.33,13.6-0.4,31.96,0.05,51.52
						c0.19,16.87,0.52,19.98,0.68,35.64c-0.16,5.28-0.36-4.33-0.36-4.33c-0.14,8.52-0.12,14.93-0.01,22.96
						c-0.09-1.63-0.16,0.05-0.27,2.5c0.03,6.44,0.36,4.31,0.21,12.81c-0.11-1.46-0.28-3.33-0.39-6.44
						c0.12,7.59,0.24,15.1,0.36,22.96c-0.17,2.09-0.26-4.74-0.37-7.52c0.08,8.84,0.15,22.89,0.42,25.62l0.1-5.67
						c0.01,3.22-0.23,1.66-0.28-0.72c-0.21-7.57,0.09-10.92,0.19-11.35l0.06,5.6c0.57-5.75-0.09-22.49-0.06-33.76l0.42,4.7
						l-0.35-11.56c0.11-2.46,0.34-4.14,0.4,1.43c0.21-8.08-0.15-7.15,0.08-14.09c0.04-0.77,0.06-0.42,0.07,0.29l-0.12-7.9
						c0.09,1.55,0.29-1.31,0.23,3.54c0.24-14.17-0.31-22.85,0-28.19l0.03,1.18c-0.14-19.66-0.31-1.9-0.66-16.65l0.75-9.92
						l-0.31-1.93c0.01-2.03,0.03-6.04,0.16-5.3c-0.21-7.55-0.13,1.29-0.33-3.09c0.28-9.76-0.13-26.92,0.36-29.12
						c-0.23-3.5-0.18,9.34-0.34-1.09c0.52-2.97-0.09-12.05,0.15-20.97c0.27,2.74,0.13,11.19,0.37,2.26
						c-0.46-5.38,0.1-17.37,0.01-24.89c-0.18-0.18-0.22-4.27-0.23-9.89c-0.01-5.62,0.02-12.78-0.05-19.09
						c0.12,0.8,0.2-23.76,0.33-35.5l0.06,0.35c-0.37-2.27-0.3-14.39-0.37-23.21c0.22,0.35,0.31,1.93,0.41,6.71l0-8.29
						c-0.12-1.96-0.18-4.54-0.22-9.92l0.27,2.09c-0.02-11.04-0.32-22.22-0.14-36.42c-0.26-0.8-0.71,11.29-0.88-3.72
						c0.14-0.56,0.38-1.11,0.43,2.82c-0.02-1.29-0.11-4.59-0.06-7.18l0.23,6c0.1-6.47-0.19-3.38-0.17-8.55
						c0.2,0.1,0.14-3.83,0.3-3.08c0.02,1.32-0.08,4.51,0,6.49c0.04-5.83,0.15-12.88,0.3-15.21c-0.11,0.51-0.27,0-0.29-4.27
						c-0.01-11.04,0.24-3.78,0.34-10.21c-0.14-2.67,0.01-9.71-0.29-9.9c0-3.23,0.14-3.83,0.22-5.07
						c-0.13-5.71-0.04-26.68-0.35-20.24l-0.02,1.46c0-0.27-0.01-0.6-0.01-0.93c0,0.05,0,0,0,0.05v-0.05
						c-0.29-18.72,0.17-38.89,0.04-57.46l0.1,0.03c-0.11-11.09-0.07-24.68-0.28-32.6c0-3.28,0.18-7.74,0.3-6.34
						c-0.07-8.48-0.19-9.43-0.02-21.67c0.17,8.52,0.15-2.94,0.13,8.73c0.09-11.01,0.24-13.51-0.03-25.33
						c0.25,4.03,0.32-8.29,0.24-13.53l-0.18,7.72c-0.04-5.89-0.01-11.03,0.01-16.26l0.33,2.83c0.4-22.54-0.69-40.64-0.01-57.8
						c-0.23-5.96-0.16,12.24-0.44,6.91c0.04-10.37,0.52-21.17,0.52-24.42c0.18-14.2-0.49-13.25-0.36-28.11
						c-0.12,1.9-0.44,3.7-0.55-7.41c0.04-10.38,0.5-12.75,0.59-6.2c0.01,2.49-0.03,3.69-0.07,3.58c0.04,3.35,0.09,7.75,0.22,3.64
						l-0.12-1.35c0.12-5.15,0.11-19.42,0.3-16.07c-0.11-7.84-0.19-3.35-0.26,2.45c0.17-13.31,0.01-20.79,0.12-34.48
						c-0.07,2.18-0.2,4.18-0.2,2.02c0.15-20.09-0.23-8.85-0.28-22.46c0.18-7.73,0.43,2.77,0.28-10.93c0.12-8.37,0.31-1.77,0.41,1.55
						c-0.23-12.48,0.15-23.33,0.19-30.46l0.1,6.58c-0.06-3.93-0.06-7.15-0.05-10.43l-0.24,3.75c0.02-1.93,0.04-3.71,0.05-5
						c0.02-1.29,0.04-2.09,0.09-2.05c-0.16-3.98-0.39,3.05-0.61-4.85c0.12-5.15-0.13-15.68,0.19-17.45
						c-0.11,16.19,0.32-1.79,0.37,11.91c-0.04-2.64-0.04-5.87,0.01-9.74c0.04-0.58,0.07,0.55,0.08,1.6
						c0.28-15.49-0.36-7.12-0.35-23.17c0.18,2.04,0.34-3.72,0.3-6.34c0,6.47-0.3,3.09-0.43-2.84c0.14-10.29-0.1-11.19-0.09-16.58
						l-0.07,6.15c-0.08-0.92-0.12-2.45-0.14-4.5c-0.01-2.19-0.03-4.95-0.05-8.18c-0.82,0-1.8,0.01-2.81,0.02
						c-0.14-0.03,0.11-0.05,0.56-0.07c0.61-0.01,1.48-0.02,2.34-0.03c0.01,1.03,0.02,2.05,0.02,2.59c0.01,0.4,0.02,0.43,0.03-0.27
						c-0.02-0.75-0.03-1.51-0.05-2.32c-1.16,0.01-2.36,0.02-3.58,0.04c-1.01,0-2.05-0.01-3.11-0.01c-2.12-0.04-4.34-0.07-6.64-0.11
						c-4.61-0.09-9.55-0.17-14.72-0.08c-5.15-0.12-0.5-0.33-5.02-0.41c-12.45,0.23-13.48-0.24-26.57-0.05
						c3.77,0.24,4.43,0.18-4.78,0.41l21.52-0.17l-13.81,0.35c6.49,0,13.7-0.15,17.59-0.11c-6.58,0.19-5.9,0.14-2.79,0.33
						c-8.89-0.36-17.62,0.21-27.89-0.03l0.31-0.59c-15.44-0.26-27.43,0.3-47.48,0.15l6.44,0.1c-2.69,0.23-12.38,0.03-18.87,0.13
						c0.6-0.2-3.45-0.27-6.23-0.39c0.34,0.15-14.68-0.01-16.5,0.38l-8.95-0.26c-16.19-0.11-18.48,0.56-34.04,0.5
						c4.69-0.21-2.39-0.35,8.04-0.51c-2.6,0-5.07,0-6.89,0c-1.83,0.01-3.02,0.03-3.06,0.1c-3.04-0.12-14.41,0.27-19.19,0.08
						c-2.19,0.09-2.91,0.29-8.74,0.28c-0.64-0.04,0.02-0.1,0.02-0.1c-0.02,0.1-9.13,0.13-4.04,0.35
						c-16.01-0.62-44.74,0.04-58.67-0.48c-11.34,0.05-25,0.1-35.3,0.14c0.66-0.06,0.03-0.1,1.98-0.08
						c-14.2-0.18-8.73,0.57-24.89,0.36c-8.25-0.32,8.58-0.17,3.43-0.29c-2.24-0.65-19.5,0.09-30.38-0.29l2.63-0.04
						c-8.31-0.22-20.28,0.25-33.86,0.2c0,0,0.66-0.06,0.08-0.1c-9.29,0.33-26.87,0.44-39.94,0.53c4.06-0.25,5.94-0.13,3.45-0.39
						c-5.86,0.04,1.72,0.41-9.97,0.49c-3.8-0.14-12.23-0.26-13.35-0.54l11.03-0.01c-5.65-0.36-14.27,0.01-20.08-0.05l0.74-0.16
						c-16.9,0.05-17.13,0.44-35.3,0.42l1.88,0.12c-9.92,0.39-8.32-0.22-18.22,0.07l-3-0.39c-6.55,0.1-22.94,0.38-34.69,0.46
						c6.65-0.29,20.4-0.44,28.9-0.62c-6.49,0-22.06,0.03-25.44,0.22c2.62-0.04,5.91-0.13,8.5-0.07c-7.96,0.31-18.44,0.46-31.38,0.46
						c0.75-0.25-2.6-0.36-7.77-0.41c-5.39-0.02-12.68-0.05-19.51-0.08c-0.01,2.01-0.02,3.98-0.03,5.87
						c-0.02,1.63-0.04,3.19-0.05,4.63c-0.05,2.88-0.11,5.3-0.22,6.93c0.28,22.88-0.12,45.4-0.08,72.06c0.6-9.46,0.02,7.78,0.63,6.15
						c0.04,6.21,0.03,8.58-0.01,9.13l-0.37,18.82c-0.18,4.46-0.13-5.91-0.27-5.34c-0.05,13.6-0.26,5.7-0.42,14.7
						c0.22-1.84,0.31,4.73,0.23,12.48l0.28-10.91c0.33,19-0.51,16.42-0.19,35.58l-0.19-6.06c0.11,9.83,0,36.26,0.49,45.89
						c-0.07,1.74-0.24,4.04-0.28-0.29c-0.07,23.49,0.52,52.28,0.22,70.54l-0.15-1.78c0.04,4.38,0.28,7.63,0.13,13.11
						c-0.06-0.28-0.15-1.77-0.16,0.26c0.05,2.32,0.26,11.64,0.17,17.45l-0.17-4.96c-0.2,22.91,0.41,35.16,0.51,54.37
						c-0.22-0.02-0.37,4.47-0.47,10.1c-0.06,5.63-0.14,12.38-0.19,16.88l-0.06-0.31c-0.05,26.68,0.36,45.32,0.54,70.02
						c-0.48,15.34-0.2,51.95-0.47,76.59c0.08-3.77,0.34,0.61,0.39,5c-0.09,5.78,0.31,15.99-0.1,15.07l0.01-2.06
						c-0.4,4.36-0.29,16.25-0.3,25.53l0.53,1.53c-0.77,24.28,0.28,63.61-0.41,76.86c0.08,5.86,0.18,13.11,0.26,18.92l-0.28-0.31
						c-0.07,16.23-0.11,24.34-0.04,44.4l-0.2-4.09c-0.02,11.32,0.82,14.29,0.83,24.73l-0.42,3.14c0.01,19.74-0.36,39.73,0.02,59.24
						c-0.06-0.32-0.18-0.9-0.2-4.1c-0.01,9.29-0.29,35.95,0.29,32.57c-0.09,0.06-0.14,1.36-0.16,3.45s-0.01,4.96,0.02,8.16
						c0.09,6.4,0.2,14.1,0.27,19.43l-0.28-1.66c0.36,9,0.45,9.29,0.55,21.85c-0.04,2.98-0.22,2.61-0.15-1.35
						c-0.15,9.92,0.26,7.73,0.12,19.77l-0.18-4.48c-0.02,10.21,0.07,9.4,0.28,15.02c0.01,0.83,0.02,1.75,0.03,2.78
						c1.84,0,3.94,0,6.07,0c1.96,0.02,3.94,0.05,5.76,0.07c3.64,0.06,6.59,0.16,7.27,0.28c1.38-0.15,6.97-0.36,12.99-0.29
						c0.81,0.1-1.38,0.15-2.48,0.18c17.07,0.19,25.39-0.32,37.13-0.05c0.24,0.09,1.01,0.14,1.98,0.17
						c-13.56-0.01-24.49-0.02-23.47-0.04c0,0.26,10.96,0.3,2.24,0.66c8.8-0.19,23.83-0.61,34.51-0.49c0.52,0.02,1.02,0.05,1.41,0.09
						l-1.11,0.03c2.46,0.03,4.67,0,6.75-0.04c3.41,0.03,5.57,0.05,8.85,0.08c1.26,0.21,12.56,0.11,18.03,0.13
						c-0.45-0.28,6.7-0.24,0-0.47c0.87,0.02-1.03,0.03-4.67,0.05c-0.82,0.01-1.79,0.02-2.33,0.03c0.11-0.01,0.23-0.02,0.37-0.02
						c-3.59,0-8.26,0.01-13.58,0.02c4.32-0.14,8.83-0.26,14.87-0.11c2.81-0.17,5.89-0.35,7.63-0.45c7.48,0.39,21.89,0.6,23.89,0.85
						c16.68-0.16,39.3-0.1,49.79-0.63c4.74-0.07,5.45,0.15,7.23,0.23c-2.74,0.05-5.99,0.04-7.48,0.12
						c9.48-0.14,28.1-0.05,30.36-0.42c11.95,0.17-6.72,0.34,9.71,0.28l-2.22,0.11c32.31,0.59,52.53-0.94,88.35-0.18
						c-2.48-0.05-3.72-0.07-4.23-0.13c40.84,0.33,84.16-0.31,124.46,0.22c11.46,0.11,12.7-0.13,19.69-0.31l2.48,0.3l11.95-0.35
						c16.95-0.26,29.35,0.74,50.81,0.26l-2.77-0.2c7.71,0.04,24.41-0.12,23.13,0.11c0.79-0.04,2.53-0.21,5.54-0.11l0.23,0.16
						l18.93-0.27c14.68,0.11-2.3,0.63,19.12,0.66c7.96-0.06,22.67-0.46,19.68-0.57c-3.21-0.01-8.21-0.1-8.45-0.26l7.28-0.08
						c1.32-0.47,6.92-0.94-10.95-1.27l-12.46,0.28l-4.01-0.23l10.48-0.01c-5.95-0.21-9.72-0.02-13.94,0.1
						c-1-0.12-2.75-0.2-5.22-0.25l-12.23,0.44c-1.48-0.18,5.48-0.36-2.72-0.46c-5.73,0.21,5.49,0.41-3.99,0.54
						c-5.96-0.21-4.22-0.38-11.21-0.2c-0.98-0.12,0.5-0.2,3.27-0.25c-6.23,0.14-16.47,0.06-19.69,0.31
						c-6.21-0.26-21.02,0.07-20.4-0.37c-1.96,0.11-10.96,0.35-16.68,0.36c10.45-0.53-21.4-0.03-18.64-0.6
						c-7.73,0.47-27.93,0.21-41.62,0.47c0.77-0.04,2.27-0.11,3.48-0.09c-7.71-0.04-9.95-0.18-14.9-0.27
						c-0.99,0.39-12.99,0.48-19.46,0.72c-9.45-0.38,5.74-0.46,2.77-0.82c0.48,0.32-16.41,0.32-13.2,0.58
						c-7.23-0.23-6.23-0.11-9.95-0.44c-1.27,0.49-6.73,0.08-12.72,0.38c-10.46-0.24-2.69-0.46-14.18-0.31
						C358.26,933.58,368.47,933.4,368.47,933.4z M95.31,934.25L95.31,934.25c2.35-0.01,4.36-0.02,5.64-0.02
						C99.77,934.23,98.14,934.24,95.31,934.25z M72.35,934.26c2.79,0,6.28,0.01,9.96,0.01c0.81,0.1-0.07,0.2-2.38,0.19
						C81.19,934.39,75.77,934.34,72.35,934.26z M120.91,936.2c-3.63,0.04-4.85-0.02-5.35-0.07c1.72-0.01,3.72-0.02,6.35-0.03
						c0.11-0.01,0.32-0.03,0.43-0.03C122,936.12,121.6,936.17,120.91,936.2z"/>
					<path class="st6" d="M127.44,935.83c0.52-0.01,0.82-0.01,1.5-0.02c-0.74-0.02-1.45-0.04-2.17-0.06
						c-0.44,0.03-0.89,0.06-1.29,0.09C126.14,935.84,126.83,935.84,127.44,935.83z"/>
					<path class="st6" d="M623.75,478.49l0.01-0.49c-0.01,0.4-0.02,0.77-0.04,1.02C623.74,478.7,623.74,478.69,623.75,478.49z"/>
					<polygon class="st6" points="17.95,673.7 17.88,673.73 17.94,675.74 					"/>
					<path class="st6" d="M622.79,604.92c-0.02,0.24-0.05,0.72-0.07,1.66C622.73,606.51,622.76,605.79,622.79,604.92z"/>
					<path class="st6" d="M622.72,659.53l-0.1,7.72C622.67,663.91,622.7,661.48,622.72,659.53z"/>
					<path class="st6" d="M622.58,701.52c0.05,0.53,0.09,0.68,0.12,0.82c0-0.03,0-0.06,0-0.08L622.58,701.52z"/>
					<path class="st6" d="M622.25,33.88c0-0.56-0.01-1.12-0.01-1.62C622.19,28.46,622.21,31.04,622.25,33.88z"/>
					<path class="st6" d="M622.91,232.56c-0.04-2.11-0.09-4.19-0.13-6.39C622.76,229.71,622.75,232.46,622.91,232.56z"/>
					<path class="st6" d="M410.35,26.42c0.02,0,0,0,0.02,0c-0.48,0-0.89,0-1.37,0L410.35,26.42z"/>
					<path class="st6" d="M622.78,216.94c-0.06,3.54-0.04,6.49,0,9.24C622.8,223.28,622.83,219.86,622.78,216.94z"/>
					<path class="st6" d="M622.46,883.52l-0.01,2.02c0.02-0.03,0.03,0.09,0.05,0.24L622.46,883.52z"/>
					<path class="st6" d="M622.49,885.78l0.03,2.25C622.52,887,622.52,886.1,622.49,885.78z"/>
					<path class="st6" d="M622.59,892.76l-0.07-4.73C622.52,889.67,622.51,891.69,622.59,892.76z"/>
					<path class="st6" d="M622.59,827.93l-0.1-0.64C622.51,827.64,622.54,827.87,622.59,827.93z"/>
					<path class="st6" d="M622.56,811.04c-0.02,4.03-0.22,10.11-0.15,15.73l0.08,0.52C622.33,824.65,622.73,814.87,622.56,811.04z"
						/>
					<path class="st6" d="M623.82,740.53l-0.08,14.15c0.11-2.47,0.25-5.73,0.28,0.71C624.34,737.55,623.77,759.08,623.82,740.53z"/>
					<path class="st6" d="M623.97,696.64c0.05,7.61,0.16-0.09,0.22,0.31C624.09,692.13,624.07,690.96,623.97,696.64z"/>
					<path class="st6" d="M623.98,379.46l0.26,0.77C624.19,374.36,624.13,380.17,623.98,379.46z"/>
					<polygon class="st6" points="622.65,318.82 622.49,324.53 622.73,327.24 					"/>
					<polygon class="st6" points="624.48,283.01 624.51,285.57 624.42,275.79 					"/>
					<path class="st6" d="M348.63,23.95l1.77,0.32C354.37,24.21,355.2,23.85,348.63,23.95z"/>
					<path class="st6" d="M118.66,24.27c-2.5-0.16-8.97-0.26-12.96-0.1C110.87,24.19,116.03,24.31,118.66,24.27z"/>
					<polygon class="st6" points="15.42,612.71 15.32,608.08 15.41,616.8 					"/>
				</g>
			</g>
		</g>
	</g>
</g>
</svg>
